<svg
  width="16"
  height="16"
  viewBox="0 0 16 16"
  fill="none"
  xmlns="http://www.w3.org/2000/svg"
>
  <path
    fill-rule="evenodd"
    clip-rule="evenodd"
    d="M11.3334 2.66656V1.99995C11.3334 1.63176 11.6319 1.33328 12.0001 1.33328C12.3683 1.33328 12.6668 1.63176 12.6668 1.99995V2.66656H13.3334C14.438 2.66656 15.3334 3.56199 15.3334 4.66656V6.66656V7.99989V11.3332C15.3334 13.5424 13.5425 15.3332 11.3334 15.3332H4.66672C2.45758 15.3332 0.666718 13.5424 0.666718 11.3332V7.99989V6.66656V4.66656C0.666718 3.56199 1.56215 2.66656 2.66672 2.66656H3.99999V1.99995C3.99999 1.63176 4.29847 1.33328 4.66666 1.33328C5.03485 1.33328 5.33333 1.63176 5.33333 1.99995V2.66656H11.3334ZM1.99999 7.99989V11.3332C1.99999 12.8059 3.1939 13.9998 4.66666 13.9998H11.3333C12.8061 13.9998 14 12.8059 14 11.3332V7.99989H1.99999ZM2.66666 3.99983H3.99999V3.99995C3.99999 4.36814 4.29847 4.66662 4.66666 4.66662C5.03485 4.66662 5.33333 4.36814 5.33333 3.99995V3.99983H11.3334V3.99995C11.3334 4.36814 11.6319 4.66662 12.0001 4.66662C12.3683 4.66662 12.6668 4.36814 12.6668 3.99995V3.99983H13.3333C13.7015 3.99983 14 4.29831 14 4.6665V6.6665H1.99999V4.6665C1.99999 4.29831 2.29847 3.99983 2.66666 3.99983Z"
    fill="#060213"
  />
</svg>